<svg xmlns="http://www.w3.org/2000/svg" width="237" height="69" fill="none" viewBox="0 0 237 69"><path stroke="#05c2df" stroke-miterlimit="1.517" stroke-width="2" d="M51 7c-4.88-3.411-10.087-4.648-16-5S23.56 3.003 18.321 5.812a32.7 32.7 0 0 0-12.676 12.18A33.4 33.4 0 0 0 1 35.08a33.4 33.4 0 0 0 4.727 17.066A32.7 32.7 0 0 0 18.46 64.263a32.04 32.04 0 0 0 17.066 3.671c5.912-.382 11.609-2.5 16.473-5.935" opacity=".45"/><path stroke="#05c2df" stroke-miterlimit="10" d="M34.03 61.156c14.588 0 26.413-11.791 26.413-26.336S48.618 8.485 34.03 8.485 7.618 20.276 7.618 34.82s11.825 26.336 26.413 26.336Z"/><path fill="#05c2df" d="M86 12H56v2h30ZM86 56H56v2h30Z" opacity=".45"/><path fill="#05c2df" d="M45 35 27.75 45.392V24.608Z"/><path fill="#05c2df" d="M82.224 12h-1.96v2h1.96ZM79.285 12h-1.96v2h1.96ZM85.163 12h-1.96v2h1.96ZM88.102 12h-1.96v2h1.96ZM91.04 12h-1.96v2h1.96ZM94.96 12H93v2h1.96ZM98.877 12h-1.96v2h1.96ZM102.795 12h-1.959v2h1.959ZM107.694 12h-1.96v2h1.96ZM112.591 12h-1.959v2h1.959ZM117.489 12h-1.959v2h1.959ZM122.387 12h-1.959v2h1.959ZM127.285 12h-1.959v2h1.959ZM132.184 12h-1.959v2h1.959ZM143.547 12.23h-1.568v1.6h1.568ZM149.424 12.23h-1.568v1.6h1.568ZM155.302 12.23h-1.568v1.6h1.568ZM160.886 12.43h-1.274v1.3h1.274ZM167.742 12.43h-1.273v1.3h1.273ZM174.6 12.43h-1.274v1.3h1.274ZM181.457 12.43h-1.273v1.3h1.273ZM189.293 12.43h-1.273v1.3h1.273ZM198.109 12.43h-1.273v1.3h1.273ZM137.669 12.23h-1.567v1.6h1.567ZM236.02 12.5h-.98v1h.98ZM222.306 12.5h-.98v1h.98ZM209.571 12.5h-.979v1h.979ZM82.224 56h-1.96v2h1.96ZM79.285 56h-1.96v2h1.96ZM85.163 56h-1.96v2h1.96ZM88.102 56h-1.96v2h1.96ZM91.04 56h-1.96v2h1.96ZM94.96 56H93v2h1.96ZM98.877 56h-1.96v2h1.96ZM102.795 56h-1.959v2h1.959ZM107.694 56h-1.96v2h1.96ZM112.591 56h-1.959v2h1.959ZM117.489 56h-1.959v2h1.959ZM122.387 56h-1.959v2h1.959ZM127.285 56h-1.959v2h1.959ZM132.184 56h-1.959v2h1.959ZM143.547 56.23h-1.568v1.6h1.568ZM149.424 56.23h-1.568v1.6h1.568ZM155.302 56.23h-1.568v1.6h1.568ZM160.886 56.43h-1.274v1.3h1.274ZM167.742 56.43h-1.273v1.3h1.273ZM174.6 56.43h-1.274v1.3h1.274ZM181.457 56.43h-1.273v1.3h1.273ZM189.293 56.43h-1.273v1.3h1.273ZM198.109 56.43h-1.273v1.3h1.273ZM137.669 56.23h-1.567v1.6h1.567ZM236.02 56.5h-.98v1h.98ZM222.306 56.5h-.98v1h.98ZM209.571 56.5h-.979v1h.979Z" opacity=".45"/></svg>