<svg width="84" height="84" viewBox="0 0 84 84" fill="none" xmlns="http://www.w3.org/2000/svg">
<g clip-path="url(#clip0_3495_188)">
<path d="M35.6689 0.5C36.1745 0.500116 36.584 0.91022 36.584 1.41602V6.16309H43.2197C43.7253 6.16327 44.1348 6.57335 44.1348 7.0791V13.7139H47.9668V7.0791C47.9668 6.5733 48.3762 6.16326 48.8818 6.16309H75.3096C75.8151 6.1633 76.2246 6.57336 76.2246 7.0791V80.6689H24.3711V78.8086C24.3708 77.7505 23.5127 76.8936 22.4551 76.8936C21.3974 76.8936 20.5393 77.7505 20.5391 78.8086V80.6689H8.9668L8.32617 80.668V27.8428C8.32617 27.3369 8.73637 26.9268 9.24219 26.9268H21.54V14.6289C21.5402 14.1232 21.9494 13.714 22.4551 13.7139H27.2021V7.0791C27.2021 6.57322 27.6124 6.16313 28.1182 6.16309H34.7529V1.41602C34.7529 0.910148 35.1633 0.5 35.6689 0.5Z" stroke="#05C2DF" stroke-linecap="round"/>
<path d="M43 77.5V51.0731" stroke="#05C2DF" stroke-linecap="round"/>
<path d="M49 77.4269V51" stroke="#05C2DF" stroke-linecap="round"/>
<path d="M55 77.4269V51" stroke="#05C2DF" stroke-linecap="round"/>
<path d="M56.1572 13.4636C56.8008 13.4638 57.3223 13.9858 57.3223 14.6296V16.5173C57.322 17.161 56.8008 17.6822 56.1572 17.6824C55.5134 17.6824 54.9914 17.161 54.9912 16.5173V14.6296L54.9971 14.5105C55.0566 13.9224 55.5536 13.4636 56.1572 13.4636Z" fill="#05C2DF" stroke="#05040B" stroke-width="0.5" stroke-linecap="round"/>
<path d="M61.8208 13.4636C62.4644 13.4638 62.9858 13.9858 62.9858 14.6296V16.5173C62.9856 17.161 62.4644 17.6822 61.8208 17.6824C61.177 17.6824 60.655 17.161 60.6548 16.5173V14.6296L60.6606 14.5105C60.7202 13.9224 61.2172 13.4636 61.8208 13.4636Z" fill="#05C2DF" stroke="#05040B" stroke-width="0.5" stroke-linecap="round"/>
<path d="M67.4839 13.4636C68.1275 13.4638 68.6489 13.9858 68.6489 14.6296V16.5173C68.6487 17.161 68.1275 17.6822 67.4839 17.6824C66.8401 17.6824 66.318 17.161 66.3179 16.5173V14.6296L66.3237 14.5105C66.3832 13.9224 66.8803 13.4636 67.4839 13.4636Z" fill="#05C2DF" stroke="#05040B" stroke-width="0.5" stroke-linecap="round"/>
<path d="M56.1572 22.9016C56.8008 22.9018 57.3223 23.4238 57.3223 24.0676V25.9553C57.3221 26.5991 56.8008 27.1202 56.1572 27.1204C55.5135 27.1204 54.9914 26.5992 54.9912 25.9553V24.0676C54.9912 23.4237 55.5135 22.9016 56.1572 22.9016Z" fill="#05C2DF" stroke="#05040B" stroke-width="0.5" stroke-linecap="round"/>
<path d="M61.8208 22.9016C62.4644 22.9018 62.9858 23.4238 62.9858 24.0676V25.9553C62.9857 26.5991 62.4644 27.1202 61.8208 27.1204C61.177 27.1204 60.655 26.5992 60.6548 25.9553V24.0676C60.6548 23.4237 61.1771 22.9016 61.8208 22.9016Z" fill="#05C2DF" stroke="#05040B" stroke-width="0.5" stroke-linecap="round"/>
<path d="M67.4839 22.9016C68.1275 22.9018 68.6489 23.4238 68.6489 24.0676V25.9553C68.6488 26.5991 68.1275 27.1202 67.4839 27.1204C66.8401 27.1204 66.318 26.5992 66.3179 25.9553V24.0676C66.3179 23.4237 66.8402 22.9016 67.4839 22.9016Z" fill="#05C2DF" stroke="#05040B" stroke-width="0.5" stroke-linecap="round"/>
<path d="M56.1572 32.34C56.8008 32.3401 57.3223 32.8621 57.3223 33.506V35.3937C57.3221 36.0374 56.8008 36.5585 56.1572 36.5587C55.5135 36.5587 54.9914 36.0374 54.9912 35.3937V33.506C54.9912 32.862 55.5135 32.34 56.1572 32.34Z" fill="#05C2DF" stroke="#05040B" stroke-width="0.5" stroke-linecap="round"/>
<path d="M61.8208 32.34C62.4644 32.3401 62.9858 32.8621 62.9858 33.506V35.3937C62.9857 36.0374 62.4644 36.5585 61.8208 36.5587C61.1771 36.5587 60.655 36.0374 60.6548 35.3937V33.506C60.6548 32.862 61.1771 32.34 61.8208 32.34Z" fill="#05C2DF" stroke="#05040B" stroke-width="0.5" stroke-linecap="round"/>
<path d="M67.4839 32.34C68.1275 32.3401 68.6489 32.8621 68.6489 33.506V35.3937C68.6488 36.0374 68.1275 36.5585 67.4839 36.5587C66.8401 36.5587 66.318 36.0374 66.3179 35.3937V33.506C66.3179 32.862 66.8402 32.34 67.4839 32.34Z" fill="#05C2DF" stroke="#05040B" stroke-width="0.5" stroke-linecap="round"/>
<path d="M16.5171 36.1152C17.1607 36.1154 17.6821 36.6374 17.6821 37.2812V39.1689C17.682 39.8127 17.1607 40.3338 16.5171 40.334C15.8735 40.334 15.3512 39.8126 15.3511 39.1689V37.2812C15.3511 36.6373 15.8734 36.1152 16.5171 36.1152Z" fill="#05C2DF" stroke="#05040B" stroke-width="0.5" stroke-linecap="round"/>
<path d="M22.1802 36.1152C22.8238 36.1154 23.3452 36.6374 23.3452 37.2812V39.1689C23.345 39.8127 22.8238 40.3338 22.1802 40.334C21.5364 40.334 21.0143 39.8127 21.0142 39.1689V37.2812C21.0142 36.6373 21.5365 36.1152 22.1802 36.1152Z" fill="#05C2DF" stroke="#05040B" stroke-width="0.5" stroke-linecap="round"/>
<path d="M27.8428 36.1152C28.4863 36.1154 29.0078 36.6374 29.0078 37.2812V39.1689C29.0076 39.8127 28.4864 40.3338 27.8428 40.334C27.199 40.334 26.6769 39.8127 26.6768 39.1689V37.2812C26.6768 36.6373 27.1991 36.1152 27.8428 36.1152Z" fill="#05C2DF" stroke="#05040B" stroke-width="0.5" stroke-linecap="round"/>
<path d="M16.5171 45.5533C17.1607 45.5535 17.6821 46.0755 17.6821 46.7194V48.6071C17.682 49.2508 17.1607 49.7719 16.5171 49.7721C15.8735 49.7721 15.3512 49.2507 15.3511 48.6071V46.7194C15.3511 46.0754 15.8734 45.5533 16.5171 45.5533Z" fill="#05C2DF" stroke="#05040B" stroke-width="0.5" stroke-linecap="round"/>
<path d="M22.1802 45.5533C22.8238 45.5535 23.3452 46.0755 23.3452 46.7194V48.6071C23.345 49.2508 22.8238 49.7719 22.1802 49.7721C21.5364 49.7721 21.0143 49.2508 21.0142 48.6071V46.7194C21.0142 46.0754 21.5365 45.5533 22.1802 45.5533Z" fill="#05C2DF" stroke="#05040B" stroke-width="0.5" stroke-linecap="round"/>
<path d="M27.8428 45.5533C28.4863 45.5535 29.0078 46.0755 29.0078 46.7194V48.6071C29.0076 49.2508 28.4864 49.7719 27.8428 49.7721C27.199 49.7721 26.6769 49.2508 26.6768 48.6071V46.7194C26.6768 46.0754 27.1991 45.5533 27.8428 45.5533Z" fill="#05C2DF" stroke="#05040B" stroke-width="0.5" stroke-linecap="round"/>
<path d="M16.5171 54.9916C17.1607 54.9917 17.6821 55.5137 17.6821 56.1576V58.0453C17.682 58.689 17.1607 59.2102 16.5171 59.2103C15.8735 59.2103 15.3512 58.6891 15.3511 58.0453V56.1576C15.3511 55.5136 15.8734 54.9916 16.5171 54.9916Z" fill="#05C2DF" stroke="#05040B" stroke-width="0.5" stroke-linecap="round"/>
<path d="M22.1802 54.9916C22.8238 54.9918 23.3452 55.5137 23.3452 56.1576V58.0453C23.3451 58.689 22.8238 59.2102 22.1802 59.2103C21.5364 59.2103 21.0143 58.6891 21.0142 58.0453V56.1576C21.0142 55.5136 21.5365 54.9916 22.1802 54.9916Z" fill="#05C2DF" stroke="#05040B" stroke-width="0.5" stroke-linecap="round"/>
<path d="M27.8428 54.9916C28.4863 54.9918 29.0078 55.5137 29.0078 56.1576V58.0453C29.0076 58.689 28.4864 59.2102 27.8428 59.2103C27.199 59.2103 26.6769 58.6891 26.6768 58.0453V56.1576C26.6768 55.5136 27.1991 54.9916 27.8428 54.9916Z" fill="#05C2DF" stroke="#05040B" stroke-width="0.5" stroke-linecap="round"/>
<path d="M16.5171 64.4297C17.1607 64.4299 17.6821 64.9518 17.6821 65.5957V67.4834C17.682 68.1271 17.1607 68.6483 16.5171 68.6484C15.8735 68.6484 15.3512 68.1272 15.3511 67.4834V65.5957C15.3511 64.9517 15.8734 64.4297 16.5171 64.4297Z" fill="#05C2DF" stroke="#05040B" stroke-width="0.5" stroke-linecap="round"/>
<path d="M22.1802 64.4297C22.8238 64.4299 23.3452 64.9518 23.3452 65.5957V67.4834C23.345 68.1271 22.8238 68.6483 22.1802 68.6484C21.5364 68.6484 21.0143 68.1273 21.0142 67.4834V65.5957C21.0142 64.9517 21.5365 64.4297 22.1802 64.4297Z" fill="#05C2DF" stroke="#05040B" stroke-width="0.5" stroke-linecap="round"/>
<path d="M27.8428 64.4297C28.4863 64.4299 29.0078 64.9518 29.0078 65.5957V67.4834C29.0076 68.1271 28.4864 68.6483 27.8428 68.6484C27.199 68.6484 26.6769 68.1273 26.6768 67.4834V65.5957C26.6768 64.9517 27.1991 64.4297 27.8428 64.4297Z" fill="#05C2DF" stroke="#05040B" stroke-width="0.5" stroke-linecap="round"/>
<path d="M67.4839 41.7781C68.1275 41.7782 68.6489 42.3002 68.6489 42.9441V44.8318C68.6488 45.4755 68.1275 45.9967 67.4839 45.9968C66.8401 45.9968 66.318 45.4755 66.3179 44.8318V42.9441C66.3179 42.3001 66.8402 41.7781 67.4839 41.7781Z" fill="#05C2DF" stroke="#05040B" stroke-width="0.5" stroke-linecap="round"/>
<path d="M67.4839 51.2163C68.1275 51.2165 68.6489 51.7385 68.6489 52.3823V54.27C68.6488 54.9138 68.1275 55.4349 67.4839 55.4351C66.8401 55.4351 66.318 54.9137 66.3179 54.27V52.3823C66.3179 51.7383 66.8402 51.2163 67.4839 51.2163Z" fill="#05C2DF" stroke="#05040B" stroke-width="0.5" stroke-linecap="round"/>
<path d="M67.4839 60.6545C68.1275 60.6547 68.6489 61.1767 68.6489 61.8206V63.7083C68.6488 64.352 68.1275 64.8731 67.4839 64.8733C66.8401 64.8733 66.318 64.352 66.3179 63.7083V61.8206C66.3179 61.1766 66.8402 60.6545 67.4839 60.6545Z" fill="#05C2DF" stroke="#05040B" stroke-width="0.5" stroke-linecap="round"/>
<path d="M67.4839 70.0927C68.1275 70.0928 68.6489 70.6148 68.6489 71.2587V73.1464C68.6488 73.7901 68.1275 74.3112 67.4839 74.3114C66.8401 74.3114 66.318 73.7901 66.3179 73.1464V71.2587C66.3179 70.6147 66.8402 70.0927 67.4839 70.0927Z" fill="#05C2DF" stroke="#05040B" stroke-width="0.5" stroke-linecap="round"/>
<path d="M41.3259 20H30" stroke="#05C2DF" stroke-linecap="round"/>
<path fill-rule="evenodd" clip-rule="evenodd" d="M56 42C55.4477 42 55 42.4477 55 43V44H57V43C57 42.4477 56.5523 42 56 42Z" fill="#05C2DF"/>
<path fill-rule="evenodd" clip-rule="evenodd" d="M62 42C61.4477 42 61 42.4477 61 43V44H63V43C63 42.4477 62.5523 42 62 42Z" fill="#05C2DF"/>
</g>
<defs>
<clipPath id="clip0_3495_188">
<rect width="84" height="84" fill="white"/>
</clipPath>
</defs>
</svg>
