<svg width="83" height="83" viewBox="0 0 83 83" fill="none" xmlns="http://www.w3.org/2000/svg">
<g clip-path="url(#clip0_3495_233)">
<path d="M77.4668 17.1C80.2422 17.1 82.5 19.3578 82.5 22.1332C82.5 24.9087 80.2422 27.1664 77.4668 27.1664C74.6914 27.1663 72.4336 24.9086 72.4336 22.1332C72.4336 19.3578 74.6913 17.1 77.4668 17.1Z" stroke="#05C2DF"/>
<path d="M5.5332 62.75C8.30873 62.75 10.5664 65.0078 10.5664 67.7832C10.5664 70.5586 8.30876 72.8164 5.5332 72.8164C2.75783 72.8164 0.5 70.5586 0.5 67.7832C0.500041 65.0079 2.75786 62.75 5.5332 62.75Z" stroke="#05C2DF"/>
<path d="M73.9784 18.0435L63.1523 12.6305" stroke="#05C2DF"/>
<path d="M62.2495 72.4333C65.025 72.4333 67.2826 74.6912 67.2827 77.4666C67.2827 80.242 65.0251 82.4998 62.2495 82.4998C59.474 82.4997 57.2163 80.242 57.2163 77.4666C57.2164 74.6912 59.474 72.4334 62.2495 72.4333Z" stroke="#05C2DF"/>
<path d="M58.4861 73.605L48.3564 68.2043" stroke="#05C2DF"/>
<path d="M41.4995 37.85C44.275 37.85 46.5327 40.1078 46.5327 42.8832C46.5327 45.6586 44.2751 47.9164 41.4995 47.9164C38.7241 47.9163 36.4663 45.6587 36.4663 42.8832C36.4663 40.1078 38.724 37.85 41.4995 37.85Z" stroke="#05C2DF"/>
<path d="M38.2526 38.6131L30.3135 32.4783" stroke="#05C2DF"/>
<path d="M66.3999 36.4667C74.5137 36.4667 81.1167 43.0697 81.1167 51.1835C81.1167 59.2972 74.5137 65.9002 66.3999 65.9003C58.2861 65.9003 51.6831 59.2973 51.6831 51.1835C51.6831 43.0696 58.2861 36.4667 66.3999 36.4667Z" stroke="#05C2DF"/>
<path d="M66.3999 42C69.1754 42 71.4331 44.2578 71.4331 47.0332C71.4331 49.8086 69.1755 52.0664 66.3999 52.0664C63.6245 52.0664 61.3667 49.8087 61.3667 47.0332C61.3667 44.2578 63.6244 42 66.3999 42Z" stroke="#05C2DF"/>
<path d="M62.3867 55.8333H70.4131C72.5137 55.8335 74.199 57.4937 74.1992 59.5051V63.1516C74.1992 63.4663 74.0313 63.7589 73.7598 63.9153H73.7588C71.5158 65.2134 68.971 65.8997 66.3994 65.8997C63.8279 65.8996 61.283 65.2133 59.04 63.9153C58.7674 63.757 58.5997 63.4659 58.5996 63.1506V59.5042C58.5996 57.4941 60.2858 55.8333 62.3867 55.8333Z" stroke="#05C2DF"/>
<path d="M33.2002 53.0667C41.314 53.0667 47.917 59.6697 47.917 67.7834C47.9169 75.8971 41.3139 82.5002 33.2002 82.5002C25.0864 82.5002 18.4834 75.8972 18.4834 67.7834C18.4834 59.6696 25.0864 53.0667 33.2002 53.0667Z" stroke="#05C2DF"/>
<path d="M33.1997 58.6C35.9752 58.6 38.2329 60.8578 38.2329 63.6332C38.2329 66.4086 35.9751 68.6664 33.1997 68.6664C30.4243 68.6663 28.1665 66.4087 28.1665 63.6332C28.1665 60.8578 30.4242 58.6 33.1997 58.6Z" stroke="#05C2DF"/>
<path d="M29.1875 72.4333H37.2139C39.3144 72.4336 40.9998 74.0938 41 76.1052V79.7517C41 80.0665 40.8321 80.3589 40.5605 80.5154H40.5596C38.3166 81.8135 35.7717 82.4998 33.2002 82.4998C30.6287 82.4997 28.0838 81.8134 25.8408 80.5154C25.5682 80.3571 25.4004 80.066 25.4004 79.7507V76.1042L25.4053 75.9167C25.5061 73.9918 27.1523 72.4333 29.1875 72.4333Z" stroke="#05C2DF"/>
<path d="M15.2168 18.4833C23.3304 18.4833 29.9334 25.0863 29.9336 33.2001C29.9336 41.3138 23.3306 47.9168 15.2168 47.9169C7.10299 47.9169 0.500042 41.3139 0.5 33.2001C0.5 25.0862 7.10297 18.4833 15.2168 18.4833Z" stroke="#05C2DF"/>
<path d="M15.2168 24.0167C17.9922 24.0167 20.25 26.2746 20.25 29.0499C20.25 31.8253 17.9924 34.0831 15.2168 34.0831C12.4414 34.0831 10.1836 31.8253 10.1836 29.0499C10.1836 26.2746 12.4413 24.0168 15.2168 24.0167Z" stroke="#05C2DF"/>
<path d="M11.2036 37.85H19.23C21.3304 37.8502 23.0159 39.5105 23.0161 41.5219V45.1683C23.0161 45.483 22.8482 45.7756 22.5767 45.932H22.5757C20.3327 47.2301 17.7879 47.9164 15.2163 47.9164C12.6448 47.9163 10.0999 47.2301 7.85693 45.932C7.58432 45.7737 7.41655 45.4826 7.4165 45.1674V41.5209L7.42139 41.3334C7.52226 39.4085 9.16838 37.85 11.2036 37.85Z" stroke="#05C2DF"/>
<path d="M48.417 0.5C56.5306 0.500049 63.1336 7.10298 63.1338 15.2168C63.1337 23.3306 56.5307 29.9335 48.417 29.9336C40.3032 29.9336 33.7002 23.3306 33.7002 15.2168C33.7002 7.10297 40.3032 0.5 48.417 0.5Z" stroke="#05C2DF"/>
<path d="M48.4165 6.03333C51.1918 6.03333 53.4496 8.29121 53.4497 11.0665C53.4497 13.8419 51.1919 16.0997 48.4165 16.0997C45.6411 16.0997 43.3833 13.8419 43.3833 11.0665C43.3833 8.29118 45.641 6.03337 48.4165 6.03333Z" stroke="#05C2DF"/>
<path d="M44.4038 19.8667H52.4302C54.5306 19.8669 56.2161 21.5271 56.2163 23.5386V27.1851C56.2163 27.4997 56.0484 27.7923 55.7769 27.9487H55.7759C53.5329 29.2468 50.9881 29.9331 48.4165 29.9331C45.845 29.9331 43.3001 29.2468 41.0571 27.9487C40.7845 27.7905 40.6168 27.4994 40.6167 27.1841V23.5376C40.6167 21.5275 42.3029 19.8667 44.4038 19.8667Z" stroke="#05C2DF"/>
<path d="M33.4038 14.4348L24.5391 21.6522" stroke="#05C2DF"/>
<path d="M65.6778 36.087L58.4604 26.3435" stroke="#05C2DF"/>
<path d="M52.1143 56.2957L46.5522 60.6261" stroke="#05C2DF"/>
<path d="M18.3444 67.4827H10.8262" stroke="#05C2DF"/>
<path d="M15.2163 0.5C17.9917 0.5 20.2496 2.75785 20.2495 5.5332C20.2495 8.30862 17.9919 10.5664 15.2163 10.5664C12.4409 10.5664 10.1831 8.30874 10.1831 5.5332C10.1831 2.75792 12.4409 0.500129 15.2163 0.5Z" stroke="#05C2DF"/>
<path d="M14.0737 10.826V18.0434" stroke="#05C2DF"/>
</g>
<defs>
<clipPath id="clip0_3495_233">
<rect width="83" height="83" fill="white"/>
</clipPath>
</defs>
</svg>
